name ./resultDataOpenSim/trcMotMarkerGrf/sub09/grf-04-03.mot
datacolumns 19
datarows 17
range 0.98000000 1.04400000
endheader

                time	     ground_force_vx	     ground_force_vy	     ground_force_vz	     ground_force_px	     ground_force_py	     ground_force_pz	   l_ground_force_vx	   l_ground_force_vy	   l_ground_force_vz	   l_ground_force_px	   l_ground_force_py	   l_ground_force_pz	     ground_torque_x	     ground_torque_y	     ground_torque_z	   l_ground_torque_x	   l_ground_torque_y	   l_ground_torque_z	
          0.98000000	          0.00000000	          0.00000000	          0.00000000	          0.00000000	          0.00000000	          0.00000000	         -4.09613222	        353.49188823	         19.25843161	          0.21642655	         -0.07500000	          0.03536588	          0.00000000	          0.00000000	          0.00000000	          0.00000000	         -1.18384255	          0.00000000	
          0.98400000	          0.00000000	          0.00000000	          0.00000000	          0.00000000	          0.00000000	          0.00000000	         -1.81579096	        353.70332445	         19.66784154	          0.21694662	         -0.07500000	          0.03550909	          0.00000000	          0.00000000	          0.00000000	          0.00000000	         -1.35057853	          0.00000000	
          0.98800000	          0.00000000	          0.00000000	          0.00000000	          0.00000000	          0.00000000	          0.00000000	          0.79855162	        354.34697154	         19.90754044	          0.21742227	         -0.07500000	          0.03563761	          0.00000000	          0.00000000	          0.00000000	          0.00000000	         -1.54771369	          0.00000000	
          0.99200000	          0.00000000	          0.00000000	          0.00000000	          0.00000000	          0.00000000	          0.00000000	          3.79914813	        355.49444756	         19.95778017	          0.21780286	         -0.07500000	          0.03574977	          0.00000000	          0.00000000	          0.00000000	          0.00000000	         -1.77792470	          0.00000000	
          0.99600000	          0.00000000	          0.00000000	          0.00000000	          0.00000000	          0.00000000	          0.00000000	          7.20672281	        357.30859695	         19.80298357	          0.21800824	         -0.07500000	          0.03583910	          0.00000000	          0.00000000	          0.00000000	          0.00000000	         -2.04169186	          0.00000000	
          1.00000000	          0.00000000	          0.00000000	          0.00000000	          0.00000000	          0.00000000	          0.00000000	         11.02032867	        359.95720852	         19.43185162	          0.21802173	         -0.07500000	          0.03590645	          0.00000000	          0.00000000	          0.00000000	          0.00000000	         -2.33732079	          0.00000000	
          1.00400000	          0.00000000	          0.00000000	          0.00000000	          0.00000000	          0.00000000	          0.00000000	         15.21201240	        363.54074903	         18.83632124	          0.21794365	         -0.07500000	          0.03598664	          0.00000000	          0.00000000	          0.00000000	          0.00000000	         -2.66132132	          0.00000000	
          1.00800000	          0.00000000	          0.00000000	          0.00000000	          0.00000000	          0.00000000	          0.00000000	         19.71106609	        368.09279517	         18.01687591	          0.21790090	         -0.07500000	          0.03611839	          0.00000000	          0.00000000	          0.00000000	          0.00000000	         -3.00889715	          0.00000000	
          1.01200000	          0.00000000	          0.00000000	          0.00000000	          0.00000000	          0.00000000	          0.00000000	         24.41268470	        373.64308321	         16.98825441	          0.21800382	         -0.07500000	          0.03632548	          0.00000000	          0.00000000	          0.00000000	          0.00000000	         -3.37427070	          0.00000000	
          1.01600000	          0.00000000	          0.00000000	          0.00000000	          0.00000000	          0.00000000	          0.00000000	         29.18747527	        380.27641898	         15.77603760	          0.21833354	         -0.07500000	          0.03663839	          0.00000000	          0.00000000	          0.00000000	          0.00000000	         -3.75067428	          0.00000000	
          1.02000000	          0.00000000	          0.00000000	          0.00000000	          0.00000000	          0.00000000	          0.00000000	         33.87871607	        388.14655760	         14.41052107	          0.21893817	         -0.07500000	          0.03709150	          0.00000000	          0.00000000	          0.00000000	          0.00000000	         -4.13005602	          0.00000000	
          1.02400000	          0.00000000	          0.00000000	          0.00000000	          0.00000000	          0.00000000	          0.00000000	         38.32456542	        397.45045671	         12.93437897	          0.21976545	         -0.07500000	          0.03768609	          0.00000000	          0.00000000	          0.00000000	          0.00000000	         -4.50280163	          0.00000000	
          1.02800000	          0.00000000	          0.00000000	          0.00000000	          0.00000000	          0.00000000	          0.00000000	         42.39643006	        408.36139943	         11.41561165	          0.22069357	         -0.07500000	          0.03837876	          0.00000000	          0.00000000	          0.00000000	          0.00000000	         -4.85790261	          0.00000000	
          1.03200000	          0.00000000	          0.00000000	          0.00000000	          0.00000000	          0.00000000	          0.00000000	         46.01176112	        420.94190922	          9.94012153	          0.22158040	         -0.07500000	          0.03909762	          0.00000000	          0.00000000	          0.00000000	          0.00000000	         -5.18384079	          0.00000000	
          1.03600000	          0.00000000	          0.00000000	          0.00000000	          0.00000000	          0.00000000	          0.00000000	         49.12584367	        435.10630306	          8.59339936	          0.22231738	         -0.07500000	          0.03976224	          0.00000000	          0.00000000	          0.00000000	          0.00000000	         -5.47007422	          0.00000000	
          1.04000000	          0.00000000	          0.00000000	          0.00000000	          0.00000000	          0.00000000	          0.00000000	         51.73379764	        450.67813555	          7.45572367	          0.22283240	         -0.07500000	          0.04030391	          0.00000000	          0.00000000	          0.00000000	          0.00000000	         -5.70869539	          0.00000000	
          1.04400000	          0.00000000	          0.00000000	          0.00000000	          0.00000000	          0.00000000	          0.00000000	         53.88913430	        467.48379199	          6.59786240	          0.22311115	         -0.07500000	          0.04070516	          0.00000000	          0.00000000	          0.00000000	          0.00000000	         -5.89574027	          0.00000000	
